<svg width="15" height="15" viewBox="0 0 15 15" fill="none" xmlns="http://www.w3.org/2000/svg">
<path d="M14.4909 0.969971H5.93533C5.72037 0.969971 5.54643 1.14391 5.54643 1.35887C5.54643 1.57383 5.72037 1.74777 5.93533 1.74777H13.5521L0.993702 14.3062C0.84178 14.4581 0.84178 14.7042 0.993702 14.8561C1.06964 14.932 1.16918 14.97 1.26867 14.97C1.36817 14.97 1.46766 14.932 1.54364 14.8561L14.102 2.29767V9.91444C14.102 10.1294 14.2759 10.3033 14.4909 10.3033C14.7059 10.3033 14.8798 10.1294 14.8798 9.91444V1.35887C14.8798 1.14391 14.7058 0.969971 14.4909 0.969971Z" fill="#050B20"/>
</svg>
