<svg width="15" height="15" viewBox="0 0 15 15" fill="none" xmlns="http://www.w3.org/2000/svg">
<path d="M14.2809 0.969971H5.72533C5.51037 0.969971 5.33643 1.14391 5.33643 1.35887C5.33643 1.57383 5.51037 1.74777 5.72533 1.74777H13.3421L0.783695 14.3062C0.631774 14.4581 0.631774 14.7042 0.783695 14.8561C0.859638 14.932 0.959169 14.97 1.05866 14.97C1.15816 14.97 1.25765 14.932 1.33363 14.8561L13.892 2.29767V9.91444C13.892 10.1294 14.0659 10.3033 14.2809 10.3033C14.4959 10.3033 14.6698 10.1294 14.6698 9.91444V1.35887C14.6698 1.14391 14.4958 0.969971 14.2809 0.969971Z" fill="white"/>
</svg>
