<svg width="219" height="34" viewBox="0 0 219 34" fill="none" xmlns="http://www.w3.org/2000/svg">
<g filter="url(#filter0_d_102_2)">
<path d="M26.7188 17.625C26.7188 18.9896 26.4792 20.2448 26 21.3906C25.5312 22.5365 24.8802 23.526 24.0469 24.3594C23.2135 25.1823 22.224 25.8281 21.0781 26.2969C19.9323 26.7656 18.6875 27 17.3438 27H6.375C6.08333 27 5.8125 26.9479 5.5625 26.8438C5.3125 26.7396 5.09375 26.599 4.90625 26.4219C4.72917 26.2344 4.58854 26.0156 4.48438 25.7656C4.38021 25.5156 4.32812 25.2448 4.32812 24.9531V6.64062C4.32812 6.35938 4.38021 6.09375 4.48438 5.84375C4.58854 5.59375 4.72917 5.375 4.90625 5.1875C5.09375 5 5.3125 4.85417 5.5625 4.75C5.8125 4.64583 6.08333 4.59375 6.375 4.59375H17.3438C18.6875 4.59375 19.9323 4.82812 21.0781 5.29688C22.224 5.76562 23.2135 6.41667 24.0469 7.25C24.8802 8.07292 25.5312 9.0625 26 10.2188C26.4792 11.3646 26.7188 12.6146 26.7188 13.9688V17.625ZM22.6562 13.9688C22.6562 13.1771 22.526 12.4531 22.2656 11.7969C22.0156 11.1406 21.6562 10.5833 21.1875 10.125C20.7188 9.65625 20.1562 9.29688 19.5 9.04688C18.8542 8.78646 18.1354 8.65625 17.3438 8.65625H8.39062V22.9375H17.3438C18.1354 22.9375 18.8542 22.8125 19.5 22.5625C20.1562 22.3021 20.7188 21.9427 21.1875 21.4844C21.6562 21.0156 22.0156 20.4583 22.2656 19.8125C22.526 19.1562 22.6562 18.4271 22.6562 17.625V13.9688ZM53.0938 12.125C53.0938 13.0521 52.9792 13.8802 52.75 14.6094C52.5208 15.3385 52.2083 15.9844 51.8125 16.5469C51.4271 17.099 50.9792 17.5729 50.4688 17.9688C49.9583 18.3646 49.4219 18.6927 48.8594 18.9531C48.3073 19.2031 47.7448 19.3854 47.1719 19.5C46.6094 19.6146 46.0781 19.6719 45.5781 19.6719L54.0625 27H47.7812L39.3125 19.6719H36.3906V15.6094H45.5781C46.0885 15.5677 46.5521 15.4635 46.9688 15.2969C47.3958 15.1198 47.7604 14.8854 48.0625 14.5938C48.375 14.3021 48.6146 13.9531 48.7812 13.5469C48.9479 13.1302 49.0312 12.6562 49.0312 12.125V9.5625C49.0312 9.33333 49 9.16146 48.9375 9.04688C48.8854 8.92188 48.8125 8.83333 48.7188 8.78125C48.6354 8.71875 48.5417 8.68229 48.4375 8.67188C48.3438 8.66146 48.2552 8.65625 48.1719 8.65625H34.7656V27H30.7031V6.64062C30.7031 6.35938 30.7552 6.09375 30.8594 5.84375C30.9635 5.59375 31.1042 5.375 31.2812 5.1875C31.4688 5 31.6875 4.85417 31.9375 4.75C32.1875 4.64583 32.4583 4.59375 32.75 4.59375H48.1719C49.0781 4.59375 49.8438 4.76042 50.4688 5.09375C51.0938 5.41667 51.599 5.82812 51.9844 6.32812C52.3802 6.81771 52.6615 7.34896 52.8281 7.92188C53.0052 8.49479 53.0938 9.03125 53.0938 9.53125V12.125ZM61.2656 27H57.2031V4.59375H61.2656V27ZM88.4375 4.59375L77.8281 26.2031C77.6615 26.5365 77.4115 26.8021 77.0781 27C76.7552 27.2083 76.3958 27.3125 76 27.3125C75.6146 27.3125 75.2552 27.2083 74.9219 27C74.599 26.8021 74.349 26.5365 74.1719 26.2031L63.5781 4.59375H68.125L76 20.7344L83.9062 4.59375H88.4375ZM109.156 17.8438H96.3281V13.75H109.156V17.8438ZM110.984 27H96.3281C95.7656 27 95.151 26.901 94.4844 26.7031C93.8177 26.5052 93.1979 26.1823 92.625 25.7344C92.0625 25.276 91.5885 24.6875 91.2031 23.9688C90.8281 23.2396 90.6406 22.349 90.6406 21.2969V6.64062C90.6406 6.35938 90.6927 6.09375 90.7969 5.84375C90.901 5.59375 91.0417 5.375 91.2188 5.1875C91.4062 5 91.625 4.85417 91.875 4.75C92.125 4.64583 92.3958 4.59375 92.6875 4.59375H110.984V8.65625H94.7031V21.2969C94.7031 21.8281 94.8438 22.2344 95.125 22.5156C95.4062 22.7969 95.8177 22.9375 96.3594 22.9375H110.984V27ZM134.094 5.8125C134.25 6.17708 134.297 6.5625 134.234 6.96875C134.172 7.36458 134.005 7.70312 133.734 7.98438L120.328 22.9375H134.062V27H115.75C115.354 27 114.984 26.8906 114.641 26.6719C114.307 26.4427 114.057 26.1458 113.891 25.7812C113.714 25.4167 113.656 25.0365 113.719 24.6406C113.792 24.2448 113.958 23.901 114.219 23.6094L127.656 8.65625H113.891V4.59375H132.234C132.63 4.59375 132.995 4.70833 133.328 4.9375C133.672 5.15625 133.927 5.44792 134.094 5.8125ZM161.031 17.9375C161.031 19.3021 160.797 20.5573 160.328 21.7031C159.859 22.849 159.208 23.8385 158.375 24.6719C157.542 25.5052 156.552 26.1562 155.406 26.625C154.271 27.0833 153.031 27.3125 151.688 27.3125H146.188C144.844 27.3125 143.599 27.0833 142.453 26.625C141.307 26.1562 140.318 25.5052 139.484 24.6719C138.651 23.8385 137.995 22.849 137.516 21.7031C137.047 20.5573 136.812 19.3021 136.812 17.9375V13.6562C136.812 12.3021 137.047 11.0521 137.516 9.90625C137.995 8.75 138.651 7.76042 139.484 6.9375C140.318 6.10417 141.307 5.45312 142.453 4.98438C143.599 4.51562 144.844 4.28125 146.188 4.28125H151.688C153.031 4.28125 154.271 4.51562 155.406 4.98438C156.552 5.45312 157.542 6.10417 158.375 6.9375C159.208 7.76042 159.859 8.75 160.328 9.90625C160.797 11.0521 161.031 12.3021 161.031 13.6562V17.9375ZM156.969 13.6562C156.969 12.8542 156.839 12.1302 156.578 11.4844C156.328 10.8281 155.969 10.2708 155.5 9.8125C155.042 9.34375 154.484 8.98438 153.828 8.73438C153.182 8.47396 152.469 8.34375 151.688 8.34375H146.188C145.396 8.34375 144.672 8.47396 144.016 8.73438C143.37 8.98438 142.812 9.34375 142.344 9.8125C141.875 10.2708 141.51 10.8281 141.25 11.4844C141 12.1302 140.875 12.8542 140.875 13.6562V17.9375C140.875 18.7396 141 19.4688 141.25 20.125C141.51 20.7708 141.875 21.3281 142.344 21.7969C142.812 22.2552 143.37 22.6146 144.016 22.875C144.672 23.125 145.396 23.25 146.188 23.25H151.656C152.448 23.25 153.167 23.125 153.812 22.875C154.469 22.6146 155.031 22.2552 155.5 21.7969C155.969 21.3281 156.328 20.7708 156.578 20.125C156.839 19.4688 156.969 18.7396 156.969 17.9375V13.6562ZM187.438 25.2656C187.438 25.5573 187.38 25.8281 187.266 26.0781C187.161 26.3281 187.016 26.5469 186.828 26.7344C186.651 26.9115 186.438 27.0521 186.188 27.1562C185.938 27.2604 185.672 27.3125 185.391 27.3125C185.141 27.3125 184.885 27.2656 184.625 27.1719C184.375 27.0781 184.151 26.9271 183.953 26.7188L169.109 11.2188V27H165.047V6.32812C165.047 5.91146 165.161 5.53646 165.391 5.20312C165.63 4.85938 165.932 4.60417 166.297 4.4375C166.682 4.28125 167.078 4.24479 167.484 4.32812C167.891 4.40104 168.24 4.58854 168.531 4.89062L183.375 20.375V4.59375H187.438V25.2656ZM210.594 17.8438H197.766V13.75H210.594V17.8438ZM212.422 27H197.766C197.203 27 196.589 26.901 195.922 26.7031C195.255 26.5052 194.635 26.1823 194.062 25.7344C193.5 25.276 193.026 24.6875 192.641 23.9688C192.266 23.2396 192.078 22.349 192.078 21.2969V6.64062C192.078 6.35938 192.13 6.09375 192.234 5.84375C192.339 5.59375 192.479 5.375 192.656 5.1875C192.844 5 193.062 4.85417 193.312 4.75C193.562 4.64583 193.833 4.59375 194.125 4.59375H212.422V8.65625H196.141V21.2969C196.141 21.8281 196.281 22.2344 196.562 22.5156C196.844 22.7969 197.255 22.9375 197.797 22.9375H212.422V27Z" fill="white"/>
</g>
<defs>
<filter id="filter0_d_102_2" x="0.328125" y="0.203125" width="218.094" height="33.1094" filterUnits="userSpaceOnUse" color-interpolation-filters="sRGB">
<feFlood flood-opacity="0" result="BackgroundImageFix"/>
<feColorMatrix in="SourceAlpha" type="matrix" values="0 0 0 0 0 0 0 0 0 0 0 0 0 0 0 0 0 0 127 0" result="hardAlpha"/>
<feOffset dx="1" dy="1"/>
<feGaussianBlur stdDeviation="2.5"/>
<feComposite in2="hardAlpha" operator="out"/>
<feColorMatrix type="matrix" values="0 0 0 0 0 0 0 0 0 0 0 0 0 0 0 0 0 0 0.25 0"/>
<feBlend mode="normal" in2="BackgroundImageFix" result="effect1_dropShadow_102_2"/>
<feBlend mode="normal" in="SourceGraphic" in2="effect1_dropShadow_102_2" result="shape"/>
</filter>
</defs>
</svg>
