<svg width="26" height="14" viewBox="0 0 26 14" fill="none" xmlns="http://www.w3.org/2000/svg">
<path d="M21.8286 3.96814H19.8149C19.1421 2.98014 18.2468 2.15423 17.2037 1.5652C16.0357 0.905592 14.7094 0.557007 13.3683 0.557007H12.8C12.3878 0.557007 12.0536 0.891143 12.0536 1.30332V3.96814H3.77138C1.9529 3.96814 0.44601 5.32378 0.205717 7.07729C0.20302 7.09423 0.200707 7.11117 0.199166 7.12855C0.18163 7.27289 0.171417 7.41931 0.171417 7.56825V10.4219C0.171417 10.8341 0.505554 11.1682 0.917729 11.1682H3.52897C3.86098 12.4508 5.02814 13.4006 6.41306 13.4006C7.79796 13.4006 8.96514 12.4508 9.29712 11.1682H16.3029C16.6351 12.4508 17.802 13.4006 19.1869 13.4006C20.5718 13.4006 21.7388 12.4508 22.071 11.1682H24.6822C25.0944 11.1682 25.4286 10.8341 25.4286 10.4219V7.56825C25.4286 5.58311 23.8136 3.96814 21.8286 3.96814ZM13.5463 2.05231C15.1958 2.09956 16.7603 2.80304 17.8951 3.96814H13.5463V2.05231ZM1.66405 7.93864H2.81676C3.22894 7.93864 3.56307 7.6045 3.56307 7.19229C3.56307 6.78015 3.22894 6.44601 2.81676 6.44601H1.98912C2.36276 5.85463 3.02179 5.46091 3.77138 5.46091H12.0536V9.67559H9.29712C8.96491 8.39304 7.79796 7.443 6.41306 7.443C5.02814 7.443 3.86117 8.39304 3.52897 9.67559H1.66405V7.93864ZM7.89914 10.4219C7.89914 11.2415 7.23257 11.908 6.41306 11.908C5.59352 11.908 4.92698 11.2415 4.92698 10.4219C4.92698 9.60241 5.59352 8.93585 6.41306 8.93585C7.23257 8.93585 7.89914 9.60241 7.89914 10.4219ZM20.673 10.4219C20.673 11.2415 20.0064 11.908 19.1869 11.908C18.3674 11.908 17.7008 11.2415 17.7008 10.4219C17.7008 9.60241 18.3674 8.93585 19.1869 8.93585C20.0064 8.93585 20.673 9.60241 20.673 10.4219ZM22.071 9.67559C21.739 8.39304 20.5718 7.443 19.1869 7.443C17.802 7.443 16.6348 8.39304 16.3029 9.67559H13.5463V5.46091H21.8286C22.5649 5.46091 23.2141 5.84096 23.591 6.41481H22.436C22.0238 6.41481 21.6897 6.74895 21.6897 7.16109C21.6897 7.5733 22.0238 7.90759 22.436 7.90759H23.9359V9.67559H22.071Z" fill="black"/>
</svg>
