<svg width="24" height="14" viewBox="0 0 24 14" fill="none" xmlns="http://www.w3.org/2000/svg">
<path d="M19.5625 4.5324H18.6119C18.5049 4.53308 18.3989 4.51259 18.3 4.47214C18.2009 4.43168 18.1109 4.37211 18.035 4.29679L15.8737 2.13558C15.3408 1.60258 14.7072 1.18086 14.0097 0.89492C13.3123 0.608973 12.565 0.464513 11.8113 0.469935H4.9375C3.86006 0.469935 2.82674 0.897948 2.06488 1.65978C1.30301 2.42165 0.875 3.455 0.875 4.5324V8.5949C0.875 9.24138 1.13181 9.8614 1.58893 10.3185C2.04605 10.7756 2.66603 11.0324 3.3125 11.0324C3.3125 11.7866 3.61211 12.51 4.14542 13.0433C4.67872 13.5766 5.40204 13.8762 6.15625 13.8762C6.91044 13.8762 7.63378 13.5766 8.16708 13.0433C8.70039 12.51 9 11.7866 9 11.0324H14.7688C14.8586 11.7122 15.1924 12.3362 15.7081 12.7882C16.2238 13.2403 16.8861 13.4895 17.5719 13.4895C18.2576 13.4895 18.92 13.2403 19.4356 12.7882C19.9514 12.3362 20.2851 11.7122 20.375 11.0324H21.1875C21.834 11.0324 22.4539 10.7756 22.9111 10.3185C23.3682 9.8614 23.625 9.24138 23.625 8.5949C23.625 7.5175 23.197 6.48415 22.4351 5.72228C21.6732 4.96048 20.64 4.5324 19.5625 4.5324ZM11.8519 2.0949C12.3857 2.09398 12.9145 2.19828 13.4081 2.40177C13.9016 2.60534 14.3502 2.90418 14.7281 3.28118L15.9794 4.5324H5.945C5.79358 4.53347 5.64488 4.49217 5.51567 4.41326C5.38646 4.33426 5.28189 4.22078 5.21375 4.08558L4.27125 2.20058C4.48674 2.13198 4.71136 2.09635 4.9375 2.0949H11.8519ZM2.5 8.5949V4.5324C2.50044 4.03901 2.6506 3.5574 2.93063 3.15118L3.74313 4.77618C3.94243 5.19073 4.25496 5.54036 4.64459 5.78476C5.03422 6.02923 5.48505 6.15839 5.945 6.1574H10.625V9.4074H8.71561C8.48742 8.92143 8.12548 8.5104 7.67224 8.22256C7.219 7.93465 6.69319 7.78178 6.15625 7.78178C5.61931 7.78178 5.09347 7.93465 4.64023 8.22256C4.18699 8.5104 3.8251 8.92143 3.59687 9.4074H3.3125C3.09701 9.4074 2.89035 9.32183 2.73798 9.1695C2.5856 9.01709 2.5 8.81039 2.5 8.5949ZM6.15625 11.8449C5.91521 11.8449 5.67957 11.7735 5.47915 11.6396C5.27873 11.5056 5.12251 11.3153 5.03027 11.0926C4.93803 10.8699 4.91389 10.6248 4.96092 10.3884C5.00794 10.152 5.12402 9.93481 5.29446 9.76436C5.46491 9.59398 5.68207 9.4779 5.91848 9.43087C6.1549 9.38384 6.39995 9.40793 6.62264 9.50023C6.84534 9.59246 7.0357 9.74868 7.1696 9.94911C7.3035 10.1495 7.375 10.3851 7.375 10.6262C7.375 10.9494 7.24661 11.2594 7.01804 11.4879C6.78948 11.7165 6.47948 11.8449 6.15625 11.8449ZM17.5312 11.8449C17.2902 11.8449 17.0546 11.7735 16.8541 11.6396C16.6537 11.5056 16.4975 11.3153 16.4053 11.0926C16.313 10.8699 16.2889 10.6248 16.3359 10.3884C16.3829 10.152 16.499 9.93481 16.6695 9.76436C16.8399 9.59398 17.0571 9.4779 17.2935 9.43087C17.5299 9.38384 17.7749 9.40793 17.9977 9.50023C18.2204 9.59246 18.4107 9.74868 18.5446 9.94911C18.6785 10.1495 18.75 10.3851 18.75 10.6262C18.75 10.9494 18.6216 11.2594 18.393 11.4879C18.1645 11.7165 17.8545 11.8449 17.5312 11.8449ZM21.1875 9.4074H20.0906C19.8624 8.92143 19.5005 8.5104 19.0472 8.22256C18.594 7.93465 18.0682 7.78178 17.5312 7.78178C16.9943 7.78178 16.4685 7.93465 16.0153 8.22256C15.562 8.5104 15.2001 8.92143 14.9719 9.4074H12.25V6.1574H19.5625C19.9033 6.15923 20.2398 6.23249 20.5505 6.37243C20.8612 6.51245 21.1391 6.71594 21.3662 6.9699H21.1875C20.972 6.9699 20.7654 7.05554 20.613 7.20787C20.4606 7.36028 20.375 7.56698 20.375 7.7824C20.375 7.99789 20.4606 8.20459 20.613 8.357C20.7654 8.50933 20.972 8.5949 21.1875 8.5949H22C22 8.81039 21.9144 9.01709 21.762 9.1695C21.6096 9.32183 21.403 9.4074 21.1875 9.4074Z" fill="black"/>
</svg>
