<svg width="24" height="18" viewBox="0 0 24 18" fill="none" xmlns="http://www.w3.org/2000/svg">
<path d="M22.0136 8.01126L18.7743 6.71608L16.8916 2.32291C16.5065 1.42509 15.6274 0.844971 14.6508 0.844971H7.19853C6.11628 0.844971 5.15185 1.57216 4.85447 2.61297L3.73484 6.53247H1.90997C1.01378 6.53247 0.284973 7.26131 0.284973 8.15747V13.0325C0.284973 13.9286 1.01378 14.6575 1.90997 14.6575H3.65035C4.01353 16.055 5.27535 17.095 6.78497 17.095C8.29458 17.095 9.55642 16.055 9.91958 14.6575H13.4004C13.7635 16.055 15.0254 17.095 16.535 17.095C18.0446 17.095 19.3064 16.055 19.6696 14.6575H21.41C22.3061 14.6575 23.035 13.9286 23.035 13.0325V9.52002C23.035 8.85136 22.6344 8.25902 22.0136 8.01126ZM6.78497 15.47C5.88878 15.47 5.15997 14.7411 5.15997 13.845C5.15997 12.9488 5.88878 12.22 6.78497 12.22C7.68113 12.22 8.40997 12.9488 8.40997 13.845C8.40997 14.7411 7.68113 15.47 6.78497 15.47ZM16.535 15.47C15.6388 15.47 14.91 14.7411 14.91 13.845C14.91 12.9488 15.6388 12.22 16.535 12.22C17.4311 12.22 18.16 12.9488 18.16 13.845C18.16 14.7411 17.4311 15.47 16.535 15.47ZM21.41 13.0325H19.6696C19.3064 11.635 18.0446 10.595 16.535 10.595C15.0254 10.595 13.7635 11.635 13.4004 13.0325H9.91958C9.55642 11.635 8.29458 10.595 6.78497 10.595C5.27535 10.595 4.01353 11.635 3.65035 13.0325H1.90997V8.15747H4.34747C4.70985 8.15747 5.02916 7.91697 5.12828 7.56842L6.41608 3.05984C6.51603 2.71209 6.83697 2.46997 7.19853 2.46997H14.6508C14.9758 2.46997 15.2691 2.66334 15.3975 2.96234L17.4125 7.66508C17.497 7.86337 17.657 8.01936 17.8569 8.09981L21.41 9.52002V13.0325Z" fill="black"/>
<path d="M10.3968 10.4585C10.0238 10.2099 9.92311 9.7053 10.1717 9.33151L10.9542 8.15746H10.0352C9.73545 8.15746 9.46 7.99251 9.31861 7.72846C9.17721 7.46441 9.19266 7.14346 9.35921 6.89485L10.9842 4.45735C11.2328 4.08364 11.7374 3.98285 12.1112 4.2323C12.4841 4.48091 12.5848 4.98546 12.3362 5.35925L11.5538 6.53246H12.4727C12.7726 6.53246 13.048 6.69741 13.1893 6.96146C13.3307 7.22551 13.3153 7.54646 13.1487 7.79514L11.5237 10.2326C11.2743 10.6072 10.7689 10.7071 10.3968 10.4585Z" fill="black"/>
</svg>
