<svg width="26" height="12" viewBox="0 0 26 12" fill="none" xmlns="http://www.w3.org/2000/svg">
<path d="M23.241 4.92048L18.881 4.19344C18.626 3.77938 18.1193 3.03035 17.3824 2.27992C15.9117 0.782095 14.2184 -0.00958252 12.4856 -0.00958252H5.38527C4.23194 -0.00958252 3.1626 0.614002 2.59456 1.61781L0.63797 5.07566C0.634813 5.08123 0.632445 5.08703 0.629436 5.09267C0.478091 5.36352 0.391417 5.67522 0.391417 6.00698V9.65062C0.391417 10.0593 0.72272 10.3905 1.13137 10.3905H3.50125C3.84908 11.3007 4.73565 11.9495 5.77222 11.9495C6.8088 11.9495 7.69534 11.3007 8.04322 10.3905H17.2335C17.5813 11.3007 18.4678 11.9495 19.5044 11.9495C20.541 11.9495 21.4275 11.3007 21.7753 10.3905H24.9086C25.3172 10.3905 25.6486 10.0593 25.6486 9.65062V7.69171C25.6486 6.3036 24.6143 5.11429 23.241 4.92048ZM17.0296 4.12629H11.6992V1.47035H12.4856C14.583 1.47035 16.167 3.02092 17.0296 4.12629ZM6.76046 1.47035H10.2193V4.12629H6.76046V1.47035ZM3.88258 2.34663C4.17116 1.83666 4.70008 1.50928 5.28055 1.47392V4.12629H2.87555L3.88258 2.34663ZM5.77222 10.4695C5.24918 10.4695 4.82365 10.0512 4.82365 9.53682C4.82365 9.02254 5.24918 8.60408 5.77222 8.60408C6.29527 8.60408 6.7208 9.02254 6.7208 9.53682C6.7208 10.0512 6.29527 10.4695 5.77222 10.4695ZM19.5044 10.4695C18.9813 10.4695 18.5558 10.0512 18.5558 9.53682C18.5558 9.02254 18.9813 8.60408 19.5044 8.60408C20.0274 8.60408 20.4529 9.02254 20.4529 9.53682C20.4529 10.0512 20.0274 10.4695 19.5044 10.4695ZM21.8494 8.91059C21.5711 7.88299 20.6254 7.12416 19.5044 7.12416C18.3833 7.12416 17.4377 7.88299 17.1593 8.91059H8.11721C7.83893 7.88299 6.8933 7.12416 5.77222 7.12416C4.65115 7.12416 3.70553 7.88299 3.42715 8.91059H1.87133V6.00698C1.87133 5.78598 2.05109 5.60621 2.27209 5.60621H18.3559L23.0073 6.3819C23.0145 6.38309 23.0216 6.3842 23.0288 6.38517C23.1546 6.4024 23.2744 6.43754 23.3859 6.48746C23.0763 6.57601 22.8495 6.86045 22.8495 7.19845C22.8495 7.60709 23.1808 7.93841 23.5894 7.93841H24.1686V8.91066L21.8494 8.91059Z" fill="black"/>
</svg>
