<svg width="26" height="18" viewBox="0 0 26 18" fill="none" xmlns="http://www.w3.org/2000/svg">
<path d="M25.1522 12.3613H24.3043V8.12223C24.3043 6.71969 23.1633 5.57874 21.7609 5.57874H18.9807L17.8648 2.23086C17.5179 1.19066 16.5482 0.49176 15.4517 0.49176C15.3197 0.49176 6.15383 0.49176 5.93475 0.49176C4.82945 0.49176 3.8871 1.20061 3.53712 2.1874H2.54348C1.141 2.1874 0 3.3284 0 4.73084V8.12223C0 9.5247 1.141 10.6656 2.54348 10.6656H3.39133V12.3613H2.54348C2.07527 12.3613 1.69564 12.7409 1.69564 13.2091C1.69564 13.6774 2.07523 14.057 2.54348 14.057C3.3375 14.057 4.29031 14.057 5.08696 14.057C5.08696 15.927 6.60831 17.4484 8.47829 17.4484C10.3482 17.4484 11.8696 15.927 11.8696 14.057H15.8261C15.8261 15.927 17.3475 17.4484 19.2174 17.4484C21.0875 17.4484 22.6088 15.927 22.6088 14.057C23.4057 14.057 24.3588 14.057 25.1522 14.057C25.6205 14.057 26.0001 13.6774 26.0001 13.2091C26.0001 12.7409 25.6204 12.3613 25.1522 12.3613ZM3.39133 8.96999H2.54348C2.07599 8.96999 1.69564 8.58962 1.69564 8.12216V4.73084C1.69564 4.2633 2.07599 3.88301 2.54348 3.88301H3.39133C3.39133 4.4232 3.39133 8.44616 3.39133 8.96999ZM11.8695 2.1874H13.2826H15.4517C15.8173 2.1874 16.1405 2.42038 16.256 2.76706L17.1932 5.57867H11.8695V2.1874ZM5.08696 3.03519C5.08696 2.56769 5.46731 2.18734 5.93481 2.18734H10.174V5.57867H5.08696V3.03519ZM8.47829 15.7526C7.5433 15.7526 6.78265 14.992 6.78265 14.057C6.78265 13.122 7.5433 12.3613 8.47829 12.3613C9.4133 12.3613 10.174 13.122 10.174 14.057C10.174 14.992 9.4133 15.7526 8.47829 15.7526ZM19.2174 15.7526C18.2824 15.7526 17.5218 14.992 17.5218 14.057C17.5218 13.122 18.2824 12.3613 19.2174 12.3613C20.1524 12.3613 20.913 13.122 20.913 14.057C20.913 14.992 20.1524 15.7526 19.2174 15.7526ZM22.6087 12.3613H22.1525C21.5651 11.3487 20.4699 10.6656 19.2174 10.6656C17.9649 10.6656 16.8697 11.3487 16.2823 12.3613H11.4133C10.826 11.3487 9.73073 10.6656 8.47829 10.6656C7.22581 10.6656 6.13056 11.3487 5.54323 12.3613H5.08701V9.81782V7.27433C6.46958 7.27433 20.8531 7.27433 21.7609 7.27433C22.2284 7.27433 22.6088 7.65469 22.6088 8.12223L22.6087 12.3613Z" fill="black"/>
<path d="M14.4133 8.96997H12.7176C12.2494 8.96997 11.8698 9.34957 11.8698 9.8178C11.8698 10.286 12.2494 10.6656 12.7176 10.6656H14.4133C14.8814 10.6656 15.2611 10.2861 15.2611 9.8178C15.2611 9.34957 14.8815 8.96997 14.4133 8.96997Z" fill="black"/>
</svg>
