<svg width="19" height="23" viewBox="0 0 19 23" fill="none" xmlns="http://www.w3.org/2000/svg">
<path d="M15.7173 12.0098C15.7173 12.1074 15.5708 14.9883 18.7446 16.502C18.1587 18.3086 16.1079 22.3125 13.7153 22.3125C12.3481 22.3125 11.5669 21.4336 10.0044 21.4336C8.39307 21.4336 7.51416 22.3125 6.29346 22.3125C3.94971 22.4102 1.70361 18.0156 1.06885 16.209C0.580566 14.8418 0.385254 13.5234 0.385254 12.2539C0.385254 7.9082 3.26611 5.80859 6.00049 5.75977C7.31885 5.75977 8.979 6.6875 9.71143 6.6875C10.395 6.6875 12.2993 5.56445 14.0571 5.71094C15.8638 5.85742 17.231 6.54102 18.1587 7.85938C16.5474 8.88477 15.7173 10.2031 15.7173 12.0098ZM12.9829 4.00195C12.0063 5.125 10.8345 5.75977 9.56494 5.66211C9.46729 4.34375 9.95557 3.12305 10.8345 2.14648C11.6157 1.26758 12.9829 0.535156 14.1548 0.4375C14.1548 0.974609 14.3013 2.43945 12.9829 4.00195Z" fill="white"/>
</svg>
