<svg width="14" height="14" viewBox="0 0 14 14" fill="none" xmlns="http://www.w3.org/2000/svg">
<path d="M7.3707 3.75586C9.2164 3.75586 10.7398 5.2793 10.7398 7.125C10.7398 9 9.2164 10.4941 7.3707 10.4941C5.4957 10.4941 4.00155 9 4.00155 7.125C4.00155 5.2793 5.4957 3.75586 7.3707 3.75586ZM7.3707 9.32227C8.57187 9.32227 9.53866 8.35547 9.53866 7.125C9.53866 5.92383 8.57187 4.95703 7.3707 4.95703C6.14023 4.95703 5.17343 5.92383 5.17343 7.125C5.17343 8.35547 6.16952 9.32227 7.3707 9.32227ZM11.648 3.63867C11.648 4.07812 11.2965 4.42969 10.857 4.42969C10.4176 4.42969 10.066 4.07812 10.066 3.63867C10.066 3.19922 10.4176 2.84766 10.857 2.84766C11.2965 2.84766 11.648 3.19922 11.648 3.63867ZM13.8746 4.42969C13.9332 5.51367 13.9332 8.76562 13.8746 9.84961C13.816 10.9043 13.5816 11.8125 12.8199 12.6035C12.0582 13.3652 11.1207 13.5996 10.066 13.6582C8.98202 13.7168 5.73007 13.7168 4.64609 13.6582C3.5914 13.5996 2.6832 13.3652 1.89218 12.6035C1.13046 11.8125 0.896086 10.9043 0.837492 9.84961C0.778898 8.76562 0.778898 5.51367 0.837492 4.42969C0.896086 3.375 1.13046 2.4375 1.89218 1.67578C2.6832 0.914062 3.5914 0.679688 4.64609 0.621094C5.73007 0.5625 8.98202 0.5625 10.066 0.621094C11.1207 0.679688 12.0582 0.914062 12.8199 1.67578C13.5816 2.4375 13.816 3.375 13.8746 4.42969ZM12.4684 10.9922C12.8199 10.1426 12.732 8.0918 12.732 7.125C12.732 6.1875 12.8199 4.13672 12.4684 3.25781C12.234 2.70117 11.7945 2.23242 11.2379 2.02734C10.359 1.67578 8.3082 1.76367 7.3707 1.76367C6.4039 1.76367 4.35312 1.67578 3.50351 2.02734C2.91757 2.26172 2.47812 2.70117 2.24374 3.25781C1.89218 4.13672 1.98007 6.1875 1.98007 7.125C1.98007 8.0918 1.89218 10.1426 2.24374 10.9922C2.47812 11.5781 2.91757 12.0176 3.50351 12.252C4.35312 12.6035 6.4039 12.5156 7.3707 12.5156C8.3082 12.5156 10.359 12.6035 11.2379 12.252C11.7945 12.0176 12.2633 11.5781 12.4684 10.9922Z" fill="white"/>
</svg>
