<svg width="14" height="14" viewBox="0 0 14 14" fill="none" xmlns="http://www.w3.org/2000/svg">
<path d="M3.73788 13.75H1.01327V4.99023H3.73788V13.75ZM2.36093 3.81836C1.51132 3.81836 0.808195 3.08594 0.808195 2.20703C0.808195 1.35742 1.51132 0.654297 2.36093 0.654297C3.23984 0.654297 3.94296 1.35742 3.94296 2.20703C3.94296 3.08594 3.23984 3.81836 2.36093 3.81836ZM13.9039 13.75H11.2086V9.50195C11.2086 8.47656 11.1793 7.1875 9.77304 7.1875C8.36679 7.1875 8.16171 8.27148 8.16171 9.41406V13.75H5.4371V4.99023H8.04452V6.19141H8.07382C8.45468 5.51758 9.33359 4.78516 10.6519 4.78516C13.4059 4.78516 13.9332 6.60156 13.9332 8.94531V13.75H13.9039Z" fill="white"/>
</svg>
