<svg width="16" height="13" viewBox="0 0 16 13" fill="none" xmlns="http://www.w3.org/2000/svg">
<path d="M14.3247 3.07812C14.3247 3.22461 14.3247 3.3418 14.3247 3.48828C14.3247 7.56055 11.2485 12.2188 5.59424 12.2188C3.83643 12.2188 2.2251 11.7207 0.877441 10.8418C1.11182 10.8711 1.34619 10.9004 1.60986 10.9004C3.04541 10.9004 4.36377 10.4023 5.41846 9.58203C4.0708 9.55273 2.92822 8.67383 2.54736 7.44336C2.75244 7.47266 2.92822 7.50195 3.1333 7.50195C3.39697 7.50195 3.68994 7.44336 3.92432 7.38477C2.51807 7.0918 1.46338 5.86133 1.46338 4.36719V4.33789C1.87354 4.57227 2.37158 4.68945 2.86963 4.71875C2.02002 4.16211 1.49268 3.22461 1.49268 2.16992C1.49268 1.58398 1.63916 1.05664 1.90283 0.617188C3.42627 2.46289 5.71143 3.69336 8.26025 3.83984C8.20166 3.60547 8.17236 3.37109 8.17236 3.13672C8.17236 1.4375 9.54932 0.0605469 11.2485 0.0605469C12.1274 0.0605469 12.9185 0.412109 13.5044 1.02734C14.1782 0.880859 14.8521 0.617188 15.438 0.265625C15.2036 0.998047 14.7349 1.58398 14.0903 1.96484C14.7056 1.90625 15.3208 1.73047 15.8481 1.49609C15.438 2.11133 14.9106 2.63867 14.3247 3.07812Z" fill="white"/>
</svg>
